<?xml version="1.0" encoding="iso-8859-1"?>
<!-- Generator: Adobe Illustrator 19.0.0, SVG Export Plug-In . SVG Version: 6.00 Build 0)  -->
<svg version="1.1" id="Capa_1" xmlns="http://www.w3.org/2000/svg" xmlns:xlink="http://www.w3.org/1999/xlink" x="0px" y="0px"
	 viewBox="0 0 382.861 382.861" style="enable-background:new 0 0 382.861 382.861;" xml:space="preserve">
<path style="fill:#1185E0;" d="M140.446,382.861c-2.612,0-4.702-0.522-7.314-1.567c-6.269-3.135-9.927-10.449-8.359-17.241
	l29.257-135.314l-73.143-24.555c-4.702-1.567-8.882-5.747-9.927-10.449c-1.567-5.224,0-10.449,3.135-14.106L220.381,5.652
	c4.702-5.224,12.016-7.314,18.286-4.18c6.269,3.135,9.927,9.927,8.882,16.718L225.083,158.73l75.233,15.673
	c5.224,1.045,9.927,5.224,11.494,10.449c1.567,5.225,0.522,10.971-3.135,15.151L151.94,377.636
	C149.328,380.771,144.626,382.861,140.446,382.861z M113.279,181.718l64.261,21.943c7.314,2.612,12.016,10.449,10.449,18.286
	l-19.331,89.861l99.788-112.849l-63.739-13.061c-8.359-1.567-13.584-9.404-12.016-17.763l16.196-99.265L113.279,181.718z"/>
<g>
</g>
<g>
</g>
<g>
</g>
<g>
</g>
<g>
</g>
<g>
</g>
<g>
</g>
<g>
</g>
<g>
</g>
<g>
</g>
<g>
</g>
<g>
</g>
<g>
</g>
<g>
</g>
<g>
</g>
</svg>
